<svg width="24" height="24" viewBox="0 0 24 24" fill="none" xmlns="http://www.w3.org/2000/svg">
<path d="M11.209 0.966797L10.3223 4.87109L6.70703 7.9375C6.25919 8.31737 6 8.87637 6 9.46289V19C6 20.0931 6.90694 21 8 21H16.6348C17.3884 21 18.0812 20.5719 18.4199 19.9004L21.8359 13.127C21.9463 12.9123 22 12.6752 22 12.4434V10C22 8.90694 21.0931 8 20 8H15.4355C15.7175 7.12305 16 5.98654 16 4.86328C16 3.12758 14.9139 1.98986 13.9453 1.50781C12.9767 1.02577 12.041 1 12.041 1L11.209 0.966797ZM12.748 3.21484C12.8888 3.25722 12.9059 3.22479 13.0547 3.29883C13.5861 3.56328 14 3.85698 14 4.86328C14 6.25178 13.0781 8.61133 13.0781 8.61133L12.4922 10H20V12.3242L16.6348 19H8V9.46289L12.125 5.96289L12.748 3.21484ZM2 8V21H4V8H2Z" fill="black"/>
</svg>
